<svg width="62" height="41" viewBox="0 0 62 41" fill="none" xmlns="http://www.w3.org/2000/svg">
<path d="M30.9533 1C20.5154 1 9.80824 7.04126 1.37913 19.1238C1.13853 19.4725 1.00668 19.8846 1.00025 20.3082C0.993811 20.7318 1.11308 21.1478 1.34297 21.5036C7.81948 31.6416 18.3833 39.5698 30.9533 39.5698C43.3867 39.5698 54.1675 31.6175 60.6561 21.4567C60.8806 21.1079 61 20.7018 61 20.2869C61 19.872 60.8806 19.4659 60.6561 19.1171C54.1528 9.07287 43.293 1 30.9533 1Z" stroke="white" stroke-linecap="round" stroke-linejoin="round"/>
<path d="M30.9989 30.9988C36.9159 30.9988 41.7127 26.2021 41.7127 20.285C41.7127 14.3679 36.9159 9.57117 30.9989 9.57117C25.0818 9.57117 20.285 14.3679 20.285 20.285C20.285 26.2021 25.0818 30.9988 30.9989 30.9988Z" stroke="white" stroke-miterlimit="10"/>
</svg>
