<svg width="30" height="23" viewBox="0 0 30 23" fill="none" xmlns="http://www.w3.org/2000/svg">
<path d="M16.281 16.8595C16.281 13.3884 17.3829 10.1377 19.5868 7.10743C21.7906 4.07713 24.7934 1.70799 28.595 0L29.0083 1.32231C26.4738 2.58953 24.3802 4.21488 22.7273 6.19835C21.0744 8.12672 20.1653 10.2204 20 12.4793C21.5978 10.8815 23.3333 10.0826 25.2066 10.0826C26.7493 10.0826 27.9339 10.4683 28.7603 11.2397C29.5868 12.011 30 13.1129 30 14.5455C30 16.8044 29.1736 18.7603 27.5207 20.4132C25.9229 22.011 23.9945 22.8099 21.7355 22.8099C18.0992 22.8099 16.281 20.8264 16.281 16.8595ZM0 16.8595C0 13.3884 1.10193 10.1377 3.30579 7.10743C5.50964 4.07713 8.5124 1.70799 12.314 0L12.7273 1.32231C10.1928 2.58953 8.09917 4.21488 6.44628 6.19835C4.84848 8.12672 3.96694 10.2204 3.80165 12.4793C5.28926 10.8815 6.99724 10.0826 8.92562 10.0826C10.4683 10.0826 11.6529 10.4683 12.4793 11.2397C13.3058 12.011 13.719 13.1129 13.719 14.5455C13.719 16.8044 12.8926 18.7603 11.2397 20.4132C9.64187 22.011 7.7135 22.8099 5.45455 22.8099C1.81818 22.8099 0 20.8264 0 16.8595Z" fill="#CAAD73"/>
</svg>
